# xmcd
#
# Track frame offsets: 
#        150
#        22533
#        32798
#        44093
#        55180
#        69713
#        81135
#        92085
#        108238
#        126610
#        144353
#        156520
#        175415
#        194058
#        210738
#
# Disc length: 3032 seconds
#
# Revision: 2
# Processed by: cddbd v1.5.2PL0 Copyright (c) Steve Scherf et al.
# Submitted via: ExactAudioCopy v0.95b3
#
DISCID=dc0bd60f
DTITLE=Booker T. and The MGs - Stax Profiles [Compilation by Elvis Coste
DTITLE=llo]
DYEAR=2006
DGENRE=Instrumental
TTITLE0=Tight Is Tight
TTITLE1=Burnt Biscuits
TTITLE2=Jellybread
TTITLE3=Chinese Checkers
TTITLE4=Boot-Leg [Live]
TTITLE5=Heads Or Tails
TTITLE6=Hip Hug-Her
TTITLE7=Lady Madonna
TTITLE8=Over Easy
TTITLE9=Hang 'Em High
TTITLE10=Soul Clap '69
TTITLE11=Something
TTITLE12=Sunday Sermon
TTITLE13=Green Onions [Live]
TTITLE14=Fuquawi
EXTD=
EXTT0=
EXTT1=
EXTT2=
EXTT3=
EXTT4=
EXTT5=
EXTT6=
EXTT7=
EXTT8=
EXTT9=
EXTT10=
EXTT11=
EXTT12=
EXTT13=
EXTT14=
PLAYORDER=
